<svg id="Layer_1" data-name="Layer 1" xmlns="http://www.w3.org/2000/svg" xmlns:xlink="http://www.w3.org/1999/xlink" viewBox="0 0 800.69 528.1"><defs><style>.cls-1{fill:url(#未命名的渐变_38);}.cls-2{fill:url(#未命名的渐变_50);}.cls-3{fill:url(#未命名的渐变_26);}.cls-4{fill:#fff;}.cls-5{fill:#999;}</style><linearGradient id="未命名的渐变_38" x1="845.51" y1="399.67" x2="1029.94" y2="449.08" gradientUnits="userSpaceOnUse"><stop offset="0" stop-color="#49499f"/><stop offset="0.28" stop-color="#434da2"/><stop offset="0.64" stop-color="#335aac"/><stop offset="1" stop-color="#1c6bba"/></linearGradient><linearGradient id="未命名的渐变_50" x1="975.16" y1="421.28" x2="1125.25" y2="461.49" gradientUnits="userSpaceOnUse"><stop offset="0" stop-color="#1f6db7"/><stop offset="0.26" stop-color="#2173bc"/><stop offset="0.6" stop-color="#2583c8"/><stop offset="0.98" stop-color="#2d9ede"/><stop offset="1" stop-color="#2da0df"/></linearGradient><linearGradient id="未命名的渐变_26" x1="747.1" y1="388.96" x2="897.51" y2="429.26" gradientUnits="userSpaceOnUse"><stop offset="0" stop-color="#5d2f6f"/><stop offset="0.36" stop-color="#57367d"/><stop offset="1" stop-color="#49499f"/></linearGradient></defs><title>retrostation</title><path class="cls-1" d="M978.91,514.6c-2.59,6.41-5.25,12.8-8.16,19.89,17.14-2.35,28.77-11.52,37.8-24.65,20.35-29.58,17.84-58.65-7.33-84.22-11.82-12-26.18-19.84-41.77-26-15.33-6-31-11.75-45.28-19.74-20.19-11.28-25.32-28.37-17.29-50.11,1.84-5,4.36-9.73,7.1-15.75-17,6.48-31,15.13-40.43,29.7-14.84,23-18.22,65.64,22.88,89.87,13.61,8,28.88,13.19,43.33,19.8,14.3,6.54,28.66,13,40.39,23.9C981.4,487.77,984.76,500.13,978.91,514.6Z" transform="translate(-559.83 -277.4)"/><path class="cls-2" d="M1114,477.24c-4.67-10.72-9.46-21.4-14.11-32.13q-33.29-76.91-66.54-153.81a13.76,13.76,0,0,0-18.06-7.23c-5.43,2.47-6.57,7.91-3.31,15.84.31.75.58,1.51.91,2.24q15.14,34,30.26,68,24.08,54.18,48.07,108.39c6.16,14,2.76,24.5-10.94,31.05-28.9,13.81-57.93,27.39-87.23,40.35-8.49,3.76-17.77,3-26.08-3.48a23,23,0,0,0,6.5,23.45c7,6.17,14.57,4.89,22,1.33,34.2-16.29,68.4-32.58,102.47-49.15C1112.94,514.78,1120.65,492.5,1114,477.24Z" transform="translate(-559.83 -277.4)"/><path class="cls-3" d="M780.09,371c-3.71-8.35-2.11-15.79,4.07-21.55a69.87,69.87,0,0,1,18.23-12.57c25.64-11.68,51.64-22.58,77.42-34,9.31-4.12,17.55-4.08,25.37,5.4,1-3.3,1.59-5.36,2.15-7.43,2.13-7.86.38-14.79-5.29-20.6-5.36-5.49-11.18-1.88-16.33,0-24.89,9.29-49.79,18.6-74.35,28.72-13.14,5.41-26.39,11.28-38.2,19.06-16.56,10.91-20.69,30.49-12.59,48.71q31,69.82,62,139.7c6.62,14.91,13.12,29.87,19.93,44.69,3.12,6.79,8.51,8.71,14.27,5.76s7-7.18,4.11-13.68Q820.5,462.17,780.09,371Z" transform="translate(-559.83 -277.4)"/><path class="cls-4" d="M559.83,641c19.89,0,39.24-.12,58.59.07,6.25.06,9.87,3.31,10,9.1.27,13.69.08,27.38.08,41.72H612.62c7.39,11.23,14,21.38,21.46,32.66-8.79,0-17.58.13-25.47-.14a15,15,0,0,1-2.37-3.15c-5.87-8.42-13.36-21.5-19.36-29.82-1.39-1.93-2.58-1-5.29-1.2v33.88H559.83Zm21.84,9.63v32.07H606.5c0-9.75.13-19.16-.18-28.55,0-1.21-2.36-3.29-3.71-3.36C595.8,650.49,589,650.67,581.67,650.67Z" transform="translate(-559.83 -277.4)"/><path class="cls-4" d="M960.54,715c0-8.19-.2-15.44.08-22.68.17-4.3-1.44-5.6-5.61-5.53h-40.7c0-.51-.27-1.84-.29-2.85-.31-14.07-.21-28.15-.21-42.58h67.53c2.4,8.66,2,9.29-6.34,9.29H936.62v26.7c11.28,0,22.32,0,33.36,0,9.54,0,12.38,2.63,12.47,12,.12,11.48,0,23,0,34.86H914.22V715Z" transform="translate(-559.83 -277.4)"/><path class="cls-4" d="M896.32,723.49c-19.64,0-38.83.06-58.05.06,0-1.4-.08-2.29-.09-3.82,0-17.16.09-39.53.09-56.7.52,0,1.48-.07,5.69,0,0,.11,39,0,39-.14,10,.1,13.29,3.55,13.32,13.66C896.36,692.27,896.32,707.09,896.32,723.49Zm-21.69-8.56c0-10.32-.29-20.65-.29-30.68,0-12.51-1-12.88-14.32-12.88V715C864.87,715,868.5,714.93,874.63,714.93Z" transform="translate(-559.83 -277.4)"/><path class="cls-4" d="M646.88,662.93c16.52,0,32.43-.24,48.32.11,7.63.16,10.71,3.92,10.85,11.63.12,6.65.11,13.31.11,20a26.38,26.38,0,0,1-.31,5.65c-11.38,0-26.29.13-37,.13v14.4h36.8v9.39H646.88Zm37,27.53c.53-21.41,2.31-17.66-13.88-17.77-.33,0-.66.35-1.07.59v17.18Z" transform="translate(-559.83 -277.4)"/><path class="cls-4" d="M1325,672.34s.19,34.85.19,52.28c-6.46,0-21.4-.13-21.4-.13l.09-2.8s-.12-38.62-.12-58.85H1315c10.89,0,21.78-.11,32.67,0,9.79.15,12.74,3.12,12.78,12.65.07,16.1,0,32.21,0,48.7h-21.65v-44c0-7.81-.1-8-8.15-7.95C1329.12,672.36,1325,672.34,1325,672.34Z" transform="translate(-559.83 -277.4)"/><path class="cls-4" d="M1052.7,724.2V685.14c11.59,0,34.37.13,34.37.13a14.91,14.91,0,0,0,.54-1.88c.49-13.47,0-10.65-10.39-10.84-5.43-.1-10.86,0-16.8,0v-9.38c13.6,0,27.06-.27,40.5.14,5,.16,8.65,3.34,8.66,9,0,17.15,0,34.29,0,51.88Zm34.67-9.52V694.8h-12.48v19.88Z" transform="translate(-559.83 -277.4)"/><path class="cls-4" d="M747.46,715h9.84c8.74,0,8.74,0,7.35,9.66-12.28,0-24.71.11-37.13-.21-1,0-2.8-3-2.83-4.6-.23-12.51-.12-25-.12-37.53,0-2.2-.1-5.31-.1-7.87-2.42,0-3.82.09-7.07.09V664.1h6.88c0-4.68.33-8.27.33-13h22.14v14H765v9.39H747.46Z" transform="translate(-559.83 -277.4)"/><path class="cls-4" d="M1166.31,714.78v9.5h-39.67c0-16.36.26-49.87.26-49.87h-8.28V665.1l7.79-.19V651.14h21.85v14h17.86l.09,9.8h-17.58s.15,26.33.15,39.85Z" transform="translate(-559.83 -277.4)"/><path class="cls-4" d="M1023.86,674.72v40.22h17.42v9.21h-39.42c0-16.07-.14-33.13-.14-49.22h-8.27V665.1h8.27V650.62l10.87.08h10.67v14.41h18.52v9.61Z" transform="translate(-559.83 -277.4)"/><path class="cls-4" d="M778,663h42.25v9.38H799.63v51.92H778Z" transform="translate(-559.83 -277.4)"/><path class="cls-4" d="M1204.1,724.4h-21.9v-32c0-4.83.08-9.67,0-14.49,0-1.53,0-4.46-.43-5-1-1.16-4.66-1.55-4.66-1.55l-.15-8.7s14-.23,20.33.42c4.65.48,6.73,4.5,6.78,9C1204.21,689.26,1204.1,706.55,1204.1,724.4Z" transform="translate(-559.83 -277.4)"/><path class="cls-4" d="M1286.29,724.39c-19.51,0-58,.19-58,.19s.1-3,.1-4.3c0-17.35-.1-57.77-.1-57.77l4.93.25s27,0,40.56.16c8.29.1,12.16,2.78,12.37,10.07C1286.62,689.88,1286.29,706.8,1286.29,724.39Zm-35.76-52s0,28.45,0,42.25h13.76c0-10.42,0-20.48,0-30.53,0-11.2-2.43-11.72-5-11.72Z" transform="translate(-559.83 -277.4)"/><path class="cls-4" d="M1182.44,653.9v-16h21.35v16Z" transform="translate(-559.83 -277.4)"/><path class="cls-5" d="M760.87,791.44v-20.6H758v-4.9h6.54c2.33,0,3.93.39,4.82,1.28s1.32,2.5,1.28,4.82v21.8l4.15,4.9h34.87v4.8h-37.6l-5-5.23-8.72,7.19V793.73Zm9.69-39.34V763h-9.69V752.1Zm1.64,22.67v-4.91h13.4V751.23h10.9v18.63h13.08v4.91H796.5v21.79H785.6V774.77Zm9.7-21.26,2.83,13.85h-9.15l-2.73-13.85ZM773,794.6l3-17.22h8.83l-2.61,17.22Zm24.2-17.22h9l2.73,17.22H800.1Zm9.15-10h-8.93l2.28-13.85h8.94Z" transform="translate(-559.83 -277.4)"/><path class="cls-5" d="M828.22,751.23,824,770.73h2.29v33.14H815.9V776.62h-3.16l5.67-25.39Zm30.62,3.27c2.33,0,3.87.37,4.63,1.22s1,2.45.6,4.77L863,768.88h-9.91l.87-7.52q.54-2.34-1.86-2.07H839.44L837.15,771h-9.7l3.93-19.72h9.48l-.55,3.27Zm-19.29,19.94-3.27,26.37h-8.83l3.27-26.37ZM838.79,799h2V763.21h10.9v40.66H838.79Zm22.89-24.52,2.61,26.37h-8.72l-2.94-26.37Z" transform="translate(-559.83 -277.4)"/><path class="cls-5" d="M877.37,803.65h-9l4.25-22h42.51q4.62-.37,4.25,4.25v1.53l-12.65,8,15.92,8.29H906.68l-7.95-4-6.65,4h-14.6L891,795.91,880.2,790ZM883,753.19h37.59V758H880.75l-.87,1.64H869.19l4.15-8.39h10.57Zm-11.45,26.7v-19.4h41.63q3.49-.06,4.83,1.28c.89.89,1.31,2.5,1.28,4.82v13.3Zm9.16,6.54-.22.76h9l8.61,4.36,8.18-5.12Zm1.74-18.53h25.94v-.65c.11-1.42-.55-2.07-2-2h-24Zm25.94,4.8H882.49v2.39h25.94Z" transform="translate(-559.83 -277.4)"/><path class="cls-5" d="M956.82,751.23V757h19.61v4.8H956.82v12.09h11.77q3.48,0,4.82,1.29c.89.89,1.32,2.49,1.28,4.82v23.65H927.83V773.89h17.65V761.8H926.3V757h19.18v-5.77ZM939.16,799h24.2v-18.2c.14-1.6-.59-2.32-2.18-2.18h-22Z" transform="translate(-559.83 -277.4)"/><path class="cls-5" d="M990,804h-9.59l4.14-21.47h9.59Zm-5.34-23.21L980.9,766.7h9.27l3.92,14.06Zm5.45-29.1L993,765.07h-9.16L981,751.66ZM1013.82,804H1003v-4.79h2V774.66c0-.4-.15-.58-.55-.55h-.22L1001.39,804h-8.72l2.94-28.88V761.25h-2.83v-4.79h5.89V752h10.46v4.47h5.23v4.79h-9.81v8.07h3.16c2.33,0,3.93.39,4.82,1.28s1.32,2.5,1.29,4.82Zm9.59-38.79h-8.94l2.18-13.3h8.72l-.44,3.27h8v4.79h-8.72Zm-7.31,7v-4.9h14.17c1.6-.15,2.33.58,2.18,2.18v.76l-4,12h4.79V787h-4.46v17h-11.56v-4.68h2.18V787h-4.46v-4.79h4.14l2.5-8c.66-1.56.18-2.25-1.41-2.07Z" transform="translate(-559.83 -277.4)"/><path class="cls-5" d="M1047.38,762.89l2,6.54,1.42-4.69v-4.58c.15-1.6-.58-2.32-2.18-2.18h-11.33v-4.79h17.22q3.48-.06,4.82,1.28c.89.89,1.31,2.5,1.28,4.82v6.65l-5.89,18.2,6,19.73h-10.36l-1.85-6-2,6h-10.68l7.3-20.49-6.21-20.49Zm27.47,5.45.87,8.39.32,1.2,4.91-9.48h6.21l-7.85,16.34,6.22,14.61H1089v4.9h-12.64l-4-9.15-4.58,8.72h-6.21l7.74-15-2.73-7-1.2-11.77-4.57,1.2v-4.69l3.92-1-1.2-14.27h9.81l1.2,12.42,13.73-2.94v4.57Zm1.74-8.18-2.29-8.72h10.79l2.51,8.72Z" transform="translate(-559.83 -277.4)"/><path class="cls-5" d="M1092.61,799.51l1.74-32.7H1100l-1.85,32.7Zm23.32-37.28h-6.54v41.64h-8.82V762.23h-7.31v-4.79h7.31v-6.21h8.82v6.21h6.54Zm.11,4.58v24.85h-5.45V766.81Zm1.2,22.34V752.21H1134q3.49-.06,4.83,1.28c.89.89,1.31,2.5,1.28,4.82v40.87h5v4.69h-14.93v-44.8q.16-2.24-2.07-2.07h-.76v33.9l-3.49,13H1113.1Z" transform="translate(-559.83 -277.4)"/></svg>