<svg id="Layer_1" data-name="Layer 1" xmlns="http://www.w3.org/2000/svg" xmlns:xlink="http://www.w3.org/1999/xlink" viewBox="0 0 500.96 330.41"><defs><style>.cls-1{fill:url(#未命名的渐变_38);}.cls-2{fill:url(#未命名的渐变_50);}.cls-3{fill:url(#未命名的渐变_26);}.cls-4{fill:#fff;}.cls-5{fill:#b3b3b3;}</style><linearGradient id="未命名的渐变_38" x1="571.3" y1="238.08" x2="686.69" y2="269" gradientUnits="userSpaceOnUse"><stop offset="0" stop-color="#49499f"/><stop offset="0.28" stop-color="#434da2"/><stop offset="0.64" stop-color="#335aac"/><stop offset="1" stop-color="#1c6bba"/></linearGradient><linearGradient id="未命名的渐变_50" x1="652.42" y1="251.61" x2="746.32" y2="276.77" gradientUnits="userSpaceOnUse"><stop offset="0" stop-color="#1f6db7"/><stop offset="0.26" stop-color="#2173bc"/><stop offset="0.6" stop-color="#2583c8"/><stop offset="0.98" stop-color="#2d9ede"/><stop offset="1" stop-color="#2da0df"/></linearGradient><linearGradient id="未命名的渐变_26" x1="509.73" y1="231.38" x2="603.84" y2="256.6" gradientUnits="userSpaceOnUse"><stop offset="0" stop-color="#5d2f6f"/><stop offset="0.36" stop-color="#57367d"/><stop offset="1" stop-color="#49499f"/></linearGradient></defs><title>splash</title><path class="cls-1" d="M654.77,310c-1.62,4-3.29,8-5.11,12.45,10.72-1.47,18-7.21,23.65-15.42,12.73-18.51,11.16-36.7-4.59-52.7-7.39-7.51-16.38-12.41-26.13-16.24-9.59-3.77-19.38-7.35-28.33-12.35-12.63-7.06-15.84-17.75-10.82-31.35,1.16-3.12,2.73-6.09,4.44-9.85-10.63,4.05-19.41,9.46-25.29,18.58-9.29,14.4-11.4,41.06,14.32,56.22,8.51,5,18.06,8.26,27.1,12.39s17.94,8.15,25.28,15C656.32,293.2,658.43,300.94,654.77,310Z" transform="translate(-392.57 -161.59)"/><path class="cls-2" d="M739.28,286.62c-2.93-6.71-5.92-13.39-8.83-20.1q-20.82-48.12-41.63-96.24a8.61,8.61,0,0,0-11.3-4.52c-3.4,1.55-4.11,5-2.07,9.91.19.47.36.94.57,1.4q9.47,21.27,18.93,42.53Q710,253.5,725,287.41c3.85,8.74,1.73,15.33-6.85,19.43-18.08,8.64-36.24,17.14-54.57,25.25a15.37,15.37,0,0,1-16.32-2.18,14.35,14.35,0,0,0,4.07,14.67c4.37,3.86,9.11,3.06,13.79.83,21.39-10.19,42.79-20.38,64.1-30.75C738.62,310.11,743.44,296.17,739.28,286.62Z" transform="translate(-392.57 -161.59)"/><path class="cls-3" d="M530.37,220.17c-2.32-5.22-1.32-9.87,2.54-13.48a43.66,43.66,0,0,1,11.41-7.86c16-7.31,32.31-14.13,48.44-21.26,5.83-2.58,11-2.55,15.87,3.38.6-2.07,1-3.36,1.35-4.65a12.64,12.64,0,0,0-3.31-12.89c-3.35-3.44-7-1.18-10.21,0-15.58,5.8-31.16,11.63-46.52,18-8.23,3.39-16.51,7.06-23.9,11.93-10.37,6.83-12.95,19.08-7.88,30.47Q537.59,267.5,557,311.21c4.14,9.32,8.21,18.69,12.47,28,2,4.25,5.32,5.45,8.92,3.6s4.38-4.49,2.58-8.56Q555.65,277.2,530.37,220.17Z" transform="translate(-392.57 -161.59)"/><path class="cls-4" d="M392.57,389.1c12.44,0,24.54-.07,36.65,0,3.91,0,6.18,2.07,6.25,5.69.17,8.56,0,17.13,0,26.1h-9.93L439,441.38c-5.5,0-11,.08-15.94-.09a9.23,9.23,0,0,1-1.48-2c-3.67-5.27-8.36-13.45-12.11-18.66-.87-1.21-1.62-.65-3.31-.75v21.2H392.57Zm13.66,6v20.06h15.53c0-6.1.09-12-.11-17.86,0-.76-1.48-2.06-2.32-2.1C415.07,395,410.79,395.13,406.23,395.13Z" transform="translate(-392.57 -161.59)"/><path class="cls-4" d="M643.27,435.39c0-5.12-.12-9.66.05-14.18.11-2.7-.9-3.51-3.51-3.46H614.35c0-.33-.17-1.15-.19-1.79-.19-8.8-.13-17.61-.13-26.64h42.26c1.5,5.42,1.23,5.81-4,5.81h-24v16.71h20.87c6,0,7.74,1.65,7.8,7.5.07,7.18,0,14.37,0,21.81H614.29v-5.76Z" transform="translate(-392.57 -161.59)"/><path class="cls-4" d="M603.09,440.69c-12.29,0-24.29,0-36.32,0,0-.88,0-1.44,0-2.39,0-10.74,0-24.74,0-35.48.33,0,.93-.05,3.56,0,0,.07,24.42,0,24.42-.09,6.26.07,8.32,2.22,8.34,8.55C603.12,421.15,603.09,430.43,603.09,440.69Zm-13.57-5.36c0-6.46-.18-12.92-.18-19.19,0-7.83-.62-8.06-9-8.06v27.3C583.41,435.38,585.69,435.33,589.52,435.33Z" transform="translate(-392.57 -161.59)"/><path class="cls-4" d="M447,402.8c10.33,0,20.29-.16,30.23.06,4.77.11,6.7,2.46,6.79,7.28.07,4.16.07,8.33.07,12.49a16,16,0,0,1-.2,3.53c-7.12,0-16.44.08-23.16.08v9h23v5.87H447ZM470.15,420c.33-13.39,1.45-11-8.68-11.12-.21,0-.42.22-.67.37V420Z" transform="translate(-392.57 -161.59)"/><path class="cls-4" d="M871.31,408.69s.11,21.8.11,32.71c-4,0-13.38-.09-13.38-.09l.05-1.75S858,415.4,858,402.74h7c6.82,0,13.63-.06,20.44,0,6.13.09,8,2,8,7.92,0,10.07,0,20.15,0,30.47H880V434.1q0-10.22,0-20.44c0-4.89-.07-5-5.1-5Z" transform="translate(-392.57 -161.59)"/><path class="cls-4" d="M700.93,441.13V416.69c7.25,0,21.51.09,21.51.09a8.72,8.72,0,0,0,.33-1.18c.31-8.43,0-6.66-6.49-6.78-3.4-.06-6.8,0-10.52,0v-5.87c8.51,0,16.93-.17,25.34.09a5.25,5.25,0,0,1,5.42,5.65c0,10.72,0,21.45,0,32.45Zm21.7-5.95V422.74h-7.81v12.44Z" transform="translate(-392.57 -161.59)"/><path class="cls-4" d="M510,435.35h6.16c5.47,0,5.47,0,4.6,6-7.68,0-15.46.08-23.23-.13-.64,0-1.75-1.86-1.77-2.88-.14-7.82-.07-15.65-.07-23.48,0-1.37-.07-3.32-.07-4.92-1.51,0-2.39,0-4.42,0v-6.5h4.31c0-2.93.2-5.17.2-8.16h13.85v8.77H521V410H510Z" transform="translate(-392.57 -161.59)"/><path class="cls-4" d="M772,435.24v5.94H747.19c0-10.23.17-31.2.17-31.2h-5.18v-5.82l4.87-.13v-8.61h13.67v8.75h11.17l.06,6.13H761s.09,16.48.09,24.94Z" transform="translate(-392.57 -161.59)"/><path class="cls-4" d="M682.89,410.18v25.16h10.9v5.76H669.12c0-10.06-.08-20.73-.08-30.8h-5.18v-6.14H669v-9.07l6.8.05h6.67v9H694.1v6Z" transform="translate(-392.57 -161.59)"/><path class="cls-4" d="M529.09,402.87h26.43v5.87H542.6v32.48H529.09Z" transform="translate(-392.57 -161.59)"/><path class="cls-4" d="M795.66,441.26H782v-20c0-3,0-6.05,0-9.07,0-1,0-2.79-.27-3.14-.61-.73-2.91-1-2.91-1l-.1-5.45s8.79-.13,12.72.27c2.91.3,4.21,2.81,4.24,5.6C795.72,419.27,795.66,430.09,795.66,441.26Z" transform="translate(-392.57 -161.59)"/><path class="cls-4" d="M847.08,441.25c-12.21,0-36.29.12-36.29.12s.06-1.86.06-2.69c0-10.86-.06-36.14-.06-36.14l3.08.15s16.92,0,25.38.1c5.18.07,7.61,1.74,7.74,6.3C847.29,419.66,847.08,430.25,847.08,441.25ZM824.7,408.69s0,17.8,0,26.43h8.61V416c0-7-1.52-7.33-3.14-7.33Z" transform="translate(-392.57 -161.59)"/><path class="cls-4" d="M782.11,397.15v-10h13.36v10Z" transform="translate(-392.57 -161.59)"/><path class="cls-5" d="M518.34,483.2V470.32h-1.77v-3.07h4.09a4.1,4.1,0,0,1,3,.8,4.15,4.15,0,0,1,.8,3V484.7l2.59,3.07h21.82v3H525.37l-3.14-3.27-5.45,4.5v-7.37Zm6.07-24.61v6.82h-6.07v-6.82Zm1,14.18V469.7h8.38V458h6.82V469.7h8.18v3.07h-8.18v13.64h-6.82V472.77Zm6.06-13.3,1.78,8.66h-5.73l-1.71-8.66Zm-5.59,25.71,1.91-10.77h5.52l-1.63,10.77Zm15.14-10.77h5.66l1.7,10.77h-5.52Zm5.73-6.28h-5.59l1.43-8.66h5.59Z" transform="translate(-392.57 -161.59)"/><path class="cls-5" d="M560.48,458l-2.66,12.21h1.44V491h-6.48V473.93h-2L554.35,458Zm19.16,2c1.46,0,2.42.23,2.9.76s.6,1.53.38,3l-.69,5.25H576l.54-4.71c.23-1-.15-1.41-1.15-1.29h-7.91l-1.44,7.29H560L562.46,458h5.93l-.34,2Zm-12.07,12.48-2,16.5H560l2-16.5Zm-.47,15.34h1.22V465.54h6.82V491h-8Zm14.32-15.34,1.63,16.5H577.6l-1.84-16.5Z" transform="translate(-392.57 -161.59)"/><path class="cls-5" d="M591.23,490.84h-5.65l2.65-13.77h26.6q2.89-.24,2.66,2.65v1l-7.91,5,9.95,5.18h-9.95l-5-2.52-4.16,2.52H591.3l8.46-4.84L593,482.32Zm3.55-31.57H618.3v3H593.35l-.55,1h-6.68l2.59-5.25h6.62ZM587.62,476V463.84h26a4.12,4.12,0,0,1,3,.8,4.19,4.19,0,0,1,.8,3V476Zm5.73,4.1-.14.47h5.66l5.39,2.73,5.11-3.2Zm1.09-11.6h16.23v-.4q.11-1.33-1.23-1.23h-15Zm16.23,3H594.44V473h16.23Z" transform="translate(-392.57 -161.59)"/><path class="cls-5" d="M640.94,458v3.62h12.28v3H640.94v7.56h7.37a4.12,4.12,0,0,1,3,.81,4.07,4.07,0,0,1,.8,3v14.8H622.8V472.22h11.05v-7.56h-12v-3h12V458Zm-11,29.87H645V476.52c.09-1-.36-1.45-1.36-1.36H629.9Z" transform="translate(-392.57 -161.59)"/><path class="cls-5" d="M661.67,491h-6l2.59-13.43h6Zm-3.34-14.52-2.32-8.8h5.8l2.45,8.8Zm3.41-18.21,1.84,8.39h-5.73l-1.77-8.39ZM676.6,491h-6.75v-3h1.23V472.7c0-.25-.09-.36-.34-.34h-.14L668.83,491h-5.45L665.22,473v-8.66h-1.78v-3h3.69v-2.79h6.54v2.79h3.27v3h-6.13v5.05h2a4.16,4.16,0,0,1,3,.8,4.1,4.1,0,0,1,.8,3Zm6-24.27H677l1.37-8.32h5.45l-.27,2.05h5v3h-5.46ZM678,471.13v-3.06h8.86c1-.1,1.45.36,1.36,1.36v.48l-2.52,7.5h3v3H686V491h-7.23v-2.93h1.36v-7.7h-2.79v-3h2.59l1.56-5c.41-1,.12-1.41-.88-1.3Z" transform="translate(-392.57 -161.59)"/><path class="cls-5" d="M697.61,465.34l1.22,4.09.89-2.93v-2.87c.09-1-.36-1.45-1.36-1.36h-7.1v-3H702a3.12,3.12,0,0,1,3.82,3.82v4.16l-3.69,11.38L705.92,491h-6.47l-1.16-3.75L697.06,491h-6.68L695,478.16l-3.89-12.82Zm17.18,3.41.54,5.25.21.75,3.07-5.94h3.88L717.58,479l3.89,9.14h2.18v3.07h-7.91l-2.52-5.73L710.36,491h-3.89l4.84-9.41-1.7-4.37-.75-7.36-2.87.75v-2.93l2.46-.62-.75-8.93h6.13l.75,7.77,8.59-1.84v2.87Zm1.09-5.12-1.43-5.45h6.75l1.57,5.45Z" transform="translate(-392.57 -161.59)"/><path class="cls-5" d="M725.9,488.25,727,467.79h3.55l-1.16,20.46Zm14.59-23.32H736.4V491h-5.52V464.93h-4.57v-3h4.57V458h5.52v3.89h4.09Zm.07,2.86v15.55h-3.41V467.79Zm.75,14V458.66h10.5a3.11,3.11,0,0,1,3.82,3.81V488h3.14V491h-9.34V463c.06-.93-.37-1.36-1.3-1.29h-.48v21.2L745.47,491h-6.75Z" transform="translate(-392.57 -161.59)"/></svg>