<svg id="Layer_1" data-name="Layer 1" xmlns="http://www.w3.org/2000/svg" xmlns:xlink="http://www.w3.org/1999/xlink" viewBox="0 0 612.43 403.94"><defs><style>.cls-1{fill:url(#未命名的渐变_38);}.cls-2{fill:url(#未命名的渐变_50);}.cls-3{fill:url(#未命名的渐变_26);}.cls-4{fill:#fff;}.cls-5{fill:#b3b3b3;}</style><linearGradient id="未命名的渐变_38" x1="550.16" y1="185.57" x2="691.23" y2="223.37" gradientUnits="userSpaceOnUse"><stop offset="0" stop-color="#49499f"/><stop offset="0.28" stop-color="#434da2"/><stop offset="0.64" stop-color="#335aac"/><stop offset="1" stop-color="#1c6bba"/></linearGradient><linearGradient id="未命名的渐变_50" x1="649.33" y1="202.1" x2="764.12" y2="232.86" gradientUnits="userSpaceOnUse"><stop offset="0" stop-color="#1f6db7"/><stop offset="0.26" stop-color="#2173bc"/><stop offset="0.6" stop-color="#2583c8"/><stop offset="0.98" stop-color="#2d9ede"/><stop offset="1" stop-color="#2da0df"/></linearGradient><linearGradient id="未命名的渐变_26" x1="474.89" y1="177.38" x2="589.93" y2="208.2" gradientUnits="userSpaceOnUse"><stop offset="0" stop-color="#5d2f6f"/><stop offset="0.36" stop-color="#57367d"/><stop offset="1" stop-color="#49499f"/></linearGradient></defs><title>splash</title><path class="cls-1" d="M652.2,273.48c-2,4.91-4,9.79-6.25,15.21,13.11-1.79,22-8.8,28.92-18.85,15.56-22.63,13.64-44.86-5.61-64.42-9-9.18-20-15.17-32-19.86-11.72-4.61-23.69-9-34.63-15.09-15.45-8.63-19.38-21.7-13.23-38.33,1.41-3.82,3.34-7.45,5.43-12-13,5-23.74,11.57-30.92,22.72C552.6,160.42,550,193,581.46,211.55c10.4,6.13,22.09,10.09,33.14,15.14s21.92,10,30.89,18.29C654.1,253,656.67,262.41,652.2,273.48Z" transform="translate(-331.65 -92.05)"/><path class="cls-2" d="M755.52,244.91c-3.58-8.21-7.24-16.37-10.8-24.58q-25.46-58.82-50.89-117.65A10.52,10.52,0,0,0,680,97.15c-4.16,1.89-5,6-2.54,12.12.24.57.44,1.15.7,1.71q11.57,26,23.14,52,18.42,41.44,36.77,82.91c4.71,10.67,2.11,18.74-8.36,23.75-22.12,10.56-44.32,20.95-66.73,30.86-6.49,2.87-13.59,2.31-20-2.66a17.56,17.56,0,0,0,5,17.93c5.34,4.73,11.14,3.75,16.85,1,26.16-12.46,52.32-24.92,78.38-37.59C754.71,273.62,760.6,256.58,755.52,244.91Z" transform="translate(-331.65 -92.05)"/><path class="cls-3" d="M500.12,163.67c-2.84-6.38-1.61-12.07,3.11-16.48a53.44,53.44,0,0,1,13.94-9.61c19.62-8.94,39.51-17.27,59.22-26,7.12-3.15,13.43-3.11,19.41,4.14.73-2.53,1.21-4.1,1.64-5.69a15.44,15.44,0,0,0-4.05-15.76c-4.1-4.2-8.54-1.43-12.48,0-19,7.1-38.09,14.22-56.87,22-10.06,4.14-20.19,8.63-29.22,14.58-12.67,8.35-15.83,23.33-9.63,37.26Q508.93,221.52,532.61,275c5.07,11.41,10,22.85,15.25,34.19,2.38,5.2,6.5,6.66,10.91,4.4s5.35-5.49,3.15-10.46Q531,233.39,500.12,163.67Z" transform="translate(-331.65 -92.05)"/><path class="cls-4" d="M331.65,370.2c15.21,0,30-.09,44.81.05,4.78,0,7.55,2.53,7.64,7,.21,10.47.06,20.94.06,31.91H372l16.41,25c-6.72,0-13.45.1-19.49-.11a11.69,11.69,0,0,1-1.81-2.4c-4.49-6.44-10.22-16.45-14.8-22.81-1.07-1.48-2-.8-4-.92v25.91H331.65Zm16.7,7.36v24.53h19c0-7.46.1-14.66-.13-21.84,0-.93-1.81-2.51-2.85-2.57C359.16,377.42,353.93,377.56,348.35,377.56Z" transform="translate(-331.65 -92.05)"/><path class="cls-4" d="M638.14,426.79c0-6.26-.15-11.81.06-17.35.13-3.29-1.09-4.28-4.29-4.23H602.78c0-.39-.21-1.4-.22-2.18-.24-10.76-.16-21.53-.16-32.57h51.65c1.84,6.63,1.51,7.11-4.85,7.11H619.85V398h25.52c7.29,0,9.46,2,9.53,9.17.09,8.78,0,17.57,0,26.66H602.71v-7Z" transform="translate(-331.65 -92.05)"/><path class="cls-4" d="M589,433.26c-15,0-29.7.05-44.4.05,0-1.07-.07-1.76-.07-2.92,0-13.13.07-30.25.07-43.37.39,0,1.13-.06,4.35,0,0,.08,29.86,0,29.86-.11,7.64.07,10.16,2.71,10.18,10.44C589.05,409.38,589,420.71,589,433.26Zm-16.59-6.55c0-7.89-.22-15.79-.22-23.47,0-9.57-.76-9.84-11-9.84v33.37C565,426.77,567.74,426.71,572.43,426.71Z" transform="translate(-331.65 -92.05)"/><path class="cls-4" d="M398.23,386.94c12.63,0,24.8-.19,37,.08,5.83.13,8.19,3,8.29,8.89.1,5.09.09,10.19.09,15.27a19.93,19.93,0,0,1-.24,4.32c-8.7,0-20.1.1-28.32.1v11h28.15v7.17H398.23ZM426.5,408c.4-16.38,1.77-13.51-10.62-13.6-.25,0-.51.27-.82.45V408Z" transform="translate(-331.65 -92.05)"/><path class="cls-4" d="M916.92,394.14s.15,26.65.15,40c-5,0-16.37-.1-16.37-.1l.07-2.14s-.1-29.54-.1-45h8.62c8.33,0,16.66-.08,25,0,7.49.11,9.74,2.38,9.77,9.67.05,12.32,0,24.64,0,37.26H927.51V400.22c0-6-.08-6.15-6.24-6.08Z" transform="translate(-331.65 -92.05)"/><path class="cls-4" d="M708.64,433.8V403.93c8.86,0,26.28.1,26.28.1a11.69,11.69,0,0,0,.42-1.44c.37-10.3,0-8.15-8-8.29-4.15-.08-8.31,0-12.85,0v-7.18c10.4,0,20.7-.21,31,.11,3.86.12,6.61,2.55,6.62,6.9,0,13.12,0,26.23,0,39.68Zm26.52-7.28v-15.2h-9.55v15.2Z" transform="translate(-331.65 -92.05)"/><path class="cls-4" d="M475.16,426.73h7.53c6.68,0,6.68,0,5.62,7.39-9.39,0-18.9.09-28.4-.16-.78,0-2.14-2.28-2.17-3.52-.17-9.56-.09-19.13-.08-28.7,0-1.68-.08-4.06-.08-6-1.86,0-2.93.06-5.41.06v-7.94h5.26c0-3.59.25-6.33.25-10h16.94v10.72h14v7.18H475.16Z" transform="translate(-331.65 -92.05)"/><path class="cls-4" d="M795.53,426.6v7.27H765.19c0-12.52.2-38.15.2-38.15h-6.33V388.6l6-.15V377.92h16.72v10.7h13.66l.07,7.5H782s.11,20.13.11,30.48Z" transform="translate(-331.65 -92.05)"/><path class="cls-4" d="M686.57,396v30.76H699.9v7H669.74c0-12.3-.1-25.34-.1-37.65h-6.33V388.6h6.33V377.52l8.31.06h8.17v11h14.17V396Z" transform="translate(-331.65 -92.05)"/><path class="cls-4" d="M498.55,387h32.32v7.18H515.06v39.71H498.55Z" transform="translate(-331.65 -92.05)"/><path class="cls-4" d="M824.44,434H807.69v-24.5c0-3.7.06-7.4,0-11.09,0-1.17,0-3.41-.33-3.84-.75-.88-3.56-1.18-3.56-1.18l-.12-6.66s10.74-.17,15.55.33c3.55.36,5.14,3.43,5.18,6.84C824.52,407.08,824.44,420.3,824.44,434Z" transform="translate(-331.65 -92.05)"/><path class="cls-4" d="M887.31,434c-14.93,0-44.37.15-44.37.15s.07-2.28.07-3.29c0-13.28-.07-44.19-.07-44.19l3.76.19s20.69,0,31,.12c6.34.08,9.3,2.13,9.46,7.7C887.56,407.55,887.31,420.49,887.31,434ZM860,394.14s0,21.76,0,32.31h10.53V403.1c0-8.57-1.86-9-3.84-9Z" transform="translate(-331.65 -92.05)"/><path class="cls-4" d="M807.87,380V367.75H824.2V380Z" transform="translate(-331.65 -92.05)"/><path class="cls-5" d="M485.41,485.23V469.48h-2.16v-3.75h5c1.78,0,3,.3,3.69,1s1,1.91,1,3.69v16.67l3.16,3.75h26.68v3.67H494l-3.83-4L483.5,496v-9Zm7.42-30.09v8.34h-7.42v-8.34Zm1.25,17.34v-3.75h10.26V454.47h8.33v14.26h10v3.75h-10v16.67h-8.33V472.48Zm7.42-16.25,2.17,10.58h-7l-2.09-10.58Zm-6.83,31.42L497,474.48h6.75l-2,13.17Zm18.5-13.17h6.92l2.09,13.17h-6.76Zm7-7.67h-6.83l1.75-10.58h6.84Z" transform="translate(-331.65 -92.05)"/><path class="cls-5" d="M536.93,454.47l-3.25,14.93h1.75v25.34h-7.92V473.9h-2.42l4.34-19.43ZM560.35,457c1.78,0,3,.28,3.55.93s.73,1.87.46,3.65l-.84,6.42h-7.58l.66-5.75q.42-1.8-1.41-1.59h-9.67l-1.75,8.92h-7.42l3-15.09h7.25l-.42,2.51ZM545.6,472.23l-2.5,20.17h-6.75l2.5-20.17ZM545,491h1.5V463.64h8.33v31.1H545Zm17.5-18.76,2,20.17h-6.67l-2.25-20.17Z" transform="translate(-331.65 -92.05)"/><path class="cls-5" d="M574.53,494.57h-6.92l3.25-16.84h32.51q3.54-.28,3.25,3.25v1.17L597,488.24l12.17,6.33H597l-6.09-3.08-5.08,3.08H574.61L585,488.65l-8.26-4.5ZM578.86,456h28.76v3.66H577.11l-.67,1.25h-8.17l3.17-6.42h8.09Zm-8.75,20.42V461.56H602c1.78,0,3,.3,3.69,1s1,1.91,1,3.69V476.4Zm7,5-.17.58h6.92l6.59,3.34,6.25-3.92Zm1.33-14.17h19.84v-.5c.09-1.08-.41-1.59-1.5-1.5H578.44Zm19.84,3.67H578.44v1.83h19.84Z" transform="translate(-331.65 -92.05)"/><path class="cls-5" d="M635.29,454.47v4.42h15v3.67h-15v9.25h9c1.78,0,3,.3,3.69,1s1,1.91,1,3.69v18.09H613.12V471.81h13.51v-9.25H612v-3.67h14.68v-4.42ZM621.79,491H640.3V477.07c.11-1.23-.45-1.78-1.67-1.67H621.79Z" transform="translate(-331.65 -92.05)"/><path class="cls-5" d="M660.64,494.82H653.3l3.17-16.42h7.33Zm-4.09-17.75-2.83-10.76h7.08l3,10.76Zm4.17-22.26L663,465.06h-7l-2.17-10.25Zm18.17,40h-8.25v-3.67h1.5V472.4q0-.47-.42-.42h-.16l-2.17,22.84h-6.67L665,472.73V462.14H662.8v-3.66h4.5v-3.42h8v3.42h4v3.66h-7.5v6.17h2.41c1.78,0,3,.3,3.69,1s1,1.91,1,3.69Zm7.34-29.68h-6.84L681.06,455h6.67l-.34,2.51h6.09v3.66h-6.67Zm-5.59,5.34v-3.75h10.84c1.22-.11,1.78.44,1.67,1.67V469l-3.09,9.17h3.67v3.67h-3.42v13h-8.83v-3.58h1.66v-9.42h-3.41v-3.67h3.16l1.92-6.09c.5-1.19.14-1.72-1.08-1.58Z" transform="translate(-331.65 -92.05)"/><path class="cls-5" d="M704.57,463.39l1.5,5,1.08-3.59v-3.5c.11-1.22-.44-1.78-1.67-1.67h-8.67V456H710c1.78,0,3,.29,3.69,1s1,1.92,1,3.69v5.09l-4.5,13.92,4.59,15.09h-7.92l-1.42-4.59-1.5,4.59h-8.17l5.59-15.67-4.76-15.68Zm21,4.17.67,6.42.25.92,3.75-7.25H735l-6,12.5,4.75,11.17h2.67v3.75h-9.67l-3.08-7-3.5,6.67H715.4l5.92-11.51-2.08-5.33-.92-9-3.5.91v-3.58l3-.75-.92-10.92h7.51l.91,9.5,10.51-2.25v3.5Zm1.34-6.25-1.75-6.67h8.25l1.92,6.67Z" transform="translate(-331.65 -92.05)"/><path class="cls-5" d="M739.16,491.4l1.33-25h4.34l-1.42,25ZM757,462.89h-5v31.85h-6.75V462.89h-5.59v-3.66h5.59v-4.76H752v4.76h5Zm.08,3.51v19h-4.16v-19Zm.92,17.08V455.22h12.84c1.78,0,3,.3,3.69,1s1,1.92,1,3.69v31.26h3.83v3.59H767.92V460.48c.08-1.14-.44-1.67-1.58-1.59h-.59v25.93l-2.66,9.92h-8.26Z" transform="translate(-331.65 -92.05)"/></svg>